<?xml version="1.0" encoding="utf-8"?>
<!-- Generator: Adobe Illustrator 19.2.1, SVG Export Plug-In . SVG Version: 6.00 Build 0)  -->
<svg version="1.1" id="圖層_1" xmlns="http://www.w3.org/2000/svg" xmlns:xlink="http://www.w3.org/1999/xlink" x="0px" y="0px"
	 viewBox="0 0 540.8 527.8" style="enable-background:new 0 0 540.8 527.8;" xml:space="preserve">
<style type="text/css">
	.st1{fill:#7dd8ff;transform-origin:center center 0;}
</style>
<g>
	<g>
		<g>
			<path fill="#7dd8ff" d="M517.3,258.4c0,0,0,1.6-0.1,4.6c0,1.5-0.1,3.4-0.2,5.7c0,1.1,0,2.3-0.1,3.6c-0.1,1.3-0.2,2.7-0.3,4.1
				c-0.8,11.7-2.8,29-8.7,50.2c-0.8,2.6-1.5,5.4-2.4,8.1s-1.9,5.5-2.9,8.4c-0.9,2.9-2.1,5.8-3.3,8.7c-1.2,2.9-2.3,6-3.7,9
				c-5.3,12.2-12.1,24.8-20.5,37.6c-8.4,12.8-18.6,25.6-30.6,37.8c-12,12.2-25.8,24-41.5,34.4s-33.2,19.4-52.1,26.6
				c-2.3,1-4.8,1.7-7.2,2.5c-2.4,0.8-4.8,1.7-7.3,2.4c-2.5,0.7-5,1.4-7.5,2.1c-1.2,0.3-2.5,0.7-3.8,1.1c-1.3,0.3-2.5,0.6-3.8,0.9
				c-2.5,0.6-5.1,1.2-7.7,1.7c-2.6,0.6-5.2,0.9-7.8,1.4c-1.3,0.2-2.6,0.5-3.9,0.7l-2,0.3l-2,0.2c-2.7,0.3-5.3,0.7-8,1
				c-2.7,0.4-5.4,0.5-8.1,0.7c-2.7,0.2-5.4,0.4-8.1,0.6c-2.7,0.1-5.5,0.1-8.2,0.2c-1.4,0-2.7,0.1-4.1,0.1s-2.8-0.1-4.1-0.1
				c-2.8-0.1-5.5-0.2-8.3-0.2c-2.8-0.1-5.5-0.4-8.3-0.6c-5.6-0.3-11.1-1.2-16.7-1.9c-11.1-1.8-22.3-4-33.4-7.4
				c-5.6-1.5-11-3.5-16.5-5.4c-2.7-1-5.4-2.1-8.1-3.2l-4.1-1.6l-4-1.8c-21.4-9.5-41.7-22.3-60.2-37.8c-2.3-2-4.5-4-6.8-5.9
				c-2.2-2-4.4-4.2-6.6-6.2c-1.1-1.1-2.2-2.1-3.3-3.2l-3.1-3.3l-3.1-3.3c-1-1.1-2.1-2.2-3.1-3.4c-2-2.3-4-4.6-6-6.9
				s-3.8-4.8-5.7-7.2c-0.9-1.2-1.9-2.4-2.8-3.6l-2.6-3.8l-2.7-3.8c-0.9-1.2-1.8-2.5-2.6-3.8c-1.6-2.6-3.3-5.2-4.9-7.8
				c-1.6-2.6-3.1-5.3-4.6-8c-0.8-1.3-1.5-2.7-2.3-4l-2.1-4.1l-2.1-4.1l-1-2.1c-0.3-0.7-0.6-1.4-1-2.1c-1.3-2.8-2.5-5.6-3.8-8.5
				c-1.2-2.8-2.3-5.8-3.4-8.6c-0.6-1.4-1.1-2.9-1.7-4.3l-1.5-4.4l-1.5-4.4c-0.5-1.5-1-2.9-1.4-4.4l-2.5-9c-0.5-1.5-0.7-3-1.1-4.5
				l-1-4.5l-1-4.5l-0.8-4.6l-0.8-4.6c-0.3-1.5-0.6-3.1-0.7-4.6L9,286.3c-0.1-0.8-0.2-1.5-0.3-2.3l-0.2-2.3l-0.2-4.6L8,272.4
				c-0.1-1.6-0.1-3.1-0.2-4.7l-0.2-9.3l0.3-9.3c0.1-1.6,0-3.1,0.2-4.7l0.4-4.7l0.4-4.6l0.2-2.3c0.1-0.8,0.2-1.5,0.3-2.3l1.2-9.2
				c0.2-1.5,0.5-3.1,0.8-4.6l0.8-4.6l0.8-4.6l1.1-4.5l1.1-4.5c0.4-1.5,0.7-3,1.1-4.5l2.6-8.9c0.4-1.5,0.9-3,1.4-4.4l1.5-4.4l1.5-4.4
				c0.5-1.5,1.1-2.9,1.7-4.3c1.2-2.9,2.2-5.8,3.5-8.6s2.6-5.6,3.8-8.4c0.3-0.7,0.6-1.4,1-2.1l1.1-2.1l2.1-4.1l2.1-4.1
				c0.7-1.3,1.5-2.7,2.3-4c1.6-2.6,3-5.3,4.7-7.9c1.7-2.6,3.3-5.1,5-7.7c0.8-1.3,1.7-2.5,2.6-3.8l2.7-3.7l2.7-3.7
				c0.9-1.2,1.9-2.4,2.8-3.6c1.9-2.4,3.7-4.8,5.7-7.1c2-2.3,4-4.6,6-6.9c1-1.2,2-2.2,3.1-3.3l2.8-3.4l3.1-3.3
				c1.1-1.1,2.2-2.1,3.3-3.1c2.2-2.1,4.3-4.2,6.6-6.2c2.3-2,4.5-3.9,6.8-5.9c18.4-15.3,38.7-27.9,60-37.2l4-1.8l4-1.6
				c2.7-1,5.4-2.1,8.1-3.1c5.5-1.8,10.9-3.8,16.4-5.2c10.9-3.2,22.1-5.4,33.1-7.1c5.5-0.7,11-1.5,16.6-1.8c2.8-0.2,5.5-0.5,8.2-0.5
				c2.7-0.1,5.5-0.1,8.2-0.2c1.4,0,2.7-0.1,4.1-0.1s2.7,0.1,4.1,0.1c2.7,0.1,5.4,0.2,8.1,0.2c2.7,0.2,5.4,0.4,8,0.6
				c2.7,0.2,5.3,0.4,8,0.8c2.6,0.3,5.3,0.7,7.9,1l2,0.3l1.9,0.4c1.3,0.2,2.6,0.5,3.9,0.7c2.6,0.5,5.2,0.9,7.7,1.5s5.1,1.2,7.6,1.8
				c1.3,0.3,2.5,0.6,3.8,0.9c1.2,0.4,2.5,0.7,3.7,1.1c2.5,0.7,4.9,1.4,7.4,2.1c2.4,0.8,4.8,1.6,7.2,2.4c2.4,0.8,4.8,1.6,7.1,2.5
				c18.7,7.1,35.9,16.2,51.2,26.5c15.4,10.3,28.9,22,40.6,34.2s21.6,24.8,29.8,37.4c8.2,12.6,14.8,25.1,19.9,37
				c1.4,2.9,2.5,5.9,3.6,8.8c1.1,2.9,2.3,5.7,3.2,8.6c0.9,2.8,1.9,5.6,2.8,8.3c0.8,2.7,1.5,5.4,2.3,8c5.7,20.8,7.5,37.8,8.2,49.3
				c0.1,1.4,0.2,2.8,0.3,4.1c0.1,1.3,0.1,2.5,0.1,3.6c0,2.2,0.1,4.1,0.1,5.5c0.1,3,0.1,4.5,0.1,4.5s0-1.5-0.1-4.5
				c0-1.5-0.1-3.3-0.2-5.5c0-1.1,0-2.3-0.1-3.6s-0.2-2.6-0.3-4.1c-0.8-11.5-2.7-28.4-8.6-49.2c-0.7-2.6-1.5-5.2-2.3-8
				c-0.9-2.7-1.9-5.4-2.8-8.2s-2.1-5.6-3.2-8.5c-1.2-2.9-2.3-5.9-3.7-8.8c-5.2-11.9-11.8-24.3-20.1-36.8
				c-8.3-12.5-18.2-25-29.9-37.1c-11.7-12-25.2-23.5-40.6-33.7c-15.4-10.1-32.5-19-51-26c-2.3-1-4.7-1.6-7-2.5
				c-2.4-0.8-4.7-1.6-7.1-2.4c-2.4-0.7-4.9-1.4-7.3-2c-1.2-0.3-2.4-0.7-3.7-1c-1.2-0.3-2.5-0.6-3.7-0.9c-2.5-0.6-5-1.1-7.5-1.7
				c-2.5-0.6-5.1-0.9-7.6-1.4c-1.3-0.2-2.6-0.4-3.8-0.7l-1.9-0.3l-1.9-0.2c-2.6-0.3-5.2-0.6-7.8-1c-2.6-0.4-5.2-0.5-7.9-0.7
				c-2.6-0.2-5.3-0.4-8-0.6c-2.7-0.1-5.3-0.1-8-0.2c-1.3,0-2.7-0.1-4-0.1s-2.7,0.1-4,0.1c-2.7,0.1-5.4,0.2-8.1,0.2
				c-2.7,0.1-5.4,0.4-8.1,0.6c-5.5,0.3-10.9,1.2-16.4,1.9c-10.9,1.8-21.9,3.9-32.7,7.2c-5.5,1.4-10.8,3.4-16.1,5.2
				c-2.7,1-5.3,2.1-7.9,3.1l-4,1.6l-3.9,1.8c-21,9.3-40.9,21.9-58.9,37c-2.2,1.9-4.4,3.9-6.7,5.8c-2.2,2-4.3,4.1-6.4,6.1
				c-1.1,1-2.1,2-3.2,3.1l-3.1,3.2l-3.1,3.2c-1,1.1-2.1,2.1-3,3.3c-1.9,2.3-3.9,4.5-5.8,6.8s-3.7,4.7-5.6,7
				c-0.9,1.2-1.9,2.4-2.8,3.5l-2.6,3.7l-2.6,3.7c-0.9,1.2-1.7,2.4-2.5,3.7c-1.6,2.5-3.2,5.1-4.8,7.6c-1.6,2.6-3,5.2-4.5,7.8
				c-0.7,1.3-1.5,2.6-2.2,3.9l-2,4l-2.1,4l-1,2c-0.3,0.7-0.6,1.4-0.9,2.1c-1.2,2.8-2.5,5.5-3.7,8.3s-2.2,5.6-3.4,8.4
				c-0.5,1.4-1.1,2.8-1.6,4.2l-1.4,4.3l-1.4,4.3c-0.5,1.4-1,2.9-1.4,4.3l-2.5,8.8c-0.4,1.5-0.7,3-1.1,4.4l-1,4.4l-1,4.4l-0.8,4.5
				l-0.8,4.5c-0.2,1.5-0.6,3-0.7,4.5l-1.1,9.1c-0.1,0.8-0.2,1.5-0.3,2.3l-0.2,2.3l-0.3,4.6l-0.3,4.6c-0.1,1.5-0.1,3-0.1,4.6
				l-0.2,9.1l0.3,9.1c0.1,1.5,0,3,0.2,4.6l0.4,4.6l0.4,4.6l0.2,2.3c0.1,0.8,0.2,1.5,0.3,2.3l1.2,9c0.2,1.5,0.5,3,0.7,4.5l0.8,4.5
				l0.8,4.5l1,4.4l1,4.4c0.4,1.5,0.6,3,1.1,4.4l2.5,8.7c0.4,1.5,0.9,2.9,1.4,4.3l1.5,4.3l1.5,4.3c0.5,1.4,1.1,2.8,1.7,4.2
				c1.1,2.8,2.2,5.6,3.4,8.4c1.3,2.7,2.5,5.5,3.8,8.2c0.3,0.7,0.6,1.4,1,2l1,2l2.1,4l2.1,4c0.7,1.3,1.5,2.6,2.2,3.9
				c1.5,2.6,3,5.2,4.6,7.8c1.6,2.5,3.3,5,4.9,7.5c0.8,1.3,1.7,2.5,2.5,3.7l2.6,3.6l2.6,3.6c0.9,1.2,1.8,2.3,2.8,3.5
				c1.9,2.3,3.6,4.7,5.6,7c2,2.2,3.9,4.5,5.9,6.7c1,1.1,2,2.2,3,3.3l3.1,3.2l3.1,3.2c1,1,2.1,2,3.2,3.1c2.2,2,4.2,4.1,6.4,6
				c2.2,1.9,4.5,3.8,6.7,5.7c18,15,37.9,27.3,58.7,36.4l3.9,1.7l4,1.5c2.6,1,5.3,2.1,7.9,3.1c5.4,1.7,10.6,3.7,16,5.1
				c10.7,3.2,21.6,5.2,32.4,6.9c5.4,0.6,10.8,1.5,16.2,1.7c2.7,0.2,5.4,0.4,8.1,0.5c2.7,0.1,5.4,0.1,8,0.2c1.3,0,2.7,0.1,4,0.1
				s2.7-0.1,4-0.1c2.7-0.1,5.3-0.2,7.9-0.2c2.6-0.2,5.3-0.4,7.9-0.6s5.2-0.4,7.8-0.8c2.6-0.3,5.2-0.7,7.7-1l1.9-0.3l1.9-0.3
				c1.3-0.2,2.5-0.5,3.8-0.7c2.5-0.5,5-0.9,7.5-1.4c2.5-0.6,4.9-1.2,7.4-1.7c1.2-0.3,2.5-0.6,3.7-0.9s2.4-0.7,3.6-1
				c2.4-0.7,4.8-1.4,7.2-2.1c2.4-0.7,4.7-1.6,7-2.4s4.7-1.5,6.9-2.5c18.3-7,35.1-15.9,50.1-26c15.1-10.1,28.3-21.6,39.7-33.4
				c11.5-11.9,21.1-24.3,29.2-36.6c8-12.3,14.5-24.5,19.5-36.2c1.4-2.9,2.4-5.8,3.5-8.6c1.1-2.8,2.2-5.6,3.1-8.4s1.8-5.5,2.7-8.1
				c0.8-2.7,1.5-5.3,2.2-7.8c5.6-20.4,7.4-37,8.1-48.2c0.1-1.4,0.2-2.7,0.3-4c0.1-1.2,0.1-2.4,0.1-3.5c0-2.2,0.1-4,0.1-5.4
				c0.1-2.9,0.1-4.4,0.1-4.4h9.9V258.4z"/>
			<path fill="#7dd8ff" d="M441.8,433.9c0,0,0,1.5,0.1,3.7c0.1,2.3,0,5.2-0.1,8.2s-0.2,6-0.3,8.3c-0.1,1.1-0.1,2.1-0.2,2.8
				c-0.1,0.7-0.1,1-0.1,1s-6.2-0.2-12.1-0.6c-1.5-0.1-3-0.2-4.3-0.3c-1.4-0.2-2.7-0.3-3.8-0.4c-2.2-0.3-3.7-0.4-3.7-0.4
				s1.6-1.3,4.1-3.2c2.3-2,5.5-4.7,8.6-7.4c3-2.8,6-5.7,8.3-7.8c1.1-1.1,2-2,2.6-2.7C441.5,434.2,441.8,433.9,441.8,433.9z"/>
			<path fill="#7dd8ff" d="M329.5,500.9c0,0-0.7,1.3-1.8,3.2c-0.6,1-1.2,2.1-1.9,3.3c-0.7,1.2-1.5,2.4-2.3,3.7
				c-3.1,5-6.6,10.1-6.6,10.1s-0.3-0.2-0.9-0.5s-1.4-0.8-2.3-1.5c-1.9-1.3-4.5-2.9-6.9-4.6c-2.5-1.7-4.9-3.4-6.7-4.7
				c-1.8-1.4-3-2.3-3-2.3s0.5-0.1,1.4-0.2s2.2-0.3,3.7-0.6c1.5-0.3,3.3-0.6,5.2-0.9c1-0.2,1.9-0.3,2.9-0.5c0.5-0.1,1-0.2,1.5-0.3
				l1.5-0.3c4-0.9,8.1-1.8,11.1-2.6C327.5,501.4,329.5,500.9,329.5,500.9z"/>
			<path fill="#7dd8ff" d="M198.6,502.5c0,0-0.3,0.2-0.8,0.4c-0.5,0.3-1.3,0.6-2.2,1.1c-1.9,0.9-4.4,2.1-6.9,3.3
				c-2.6,1.2-5.2,2.4-7.1,3.2c-2,0.8-3.3,1.3-3.3,1.3s-3-4.9-5.8-9.7c-1.4-2.5-2.7-5-3.6-6.8c-0.9-1.9-1.6-3.1-1.6-3.1
				s1.9,0.8,4.8,1.9c0.7,0.3,1.5,0.6,2.3,0.9s1.7,0.6,2.6,0.9c1.8,0.6,3.8,1.3,5.8,1.9c1,0.3,2,0.7,2.9,1c1,0.3,1.9,0.6,2.9,0.8
				c1.9,0.5,3.6,1,5.1,1.4s2.7,0.8,3.6,1C198.1,502.4,198.6,502.5,198.6,502.5z"/>
			<path fill="#7dd8ff" d="M84.7,438.1c0,0-1.4,0-3.5-0.2s-4.8-0.4-7.6-0.7c-2.8-0.3-5.6-0.6-7.8-0.8c-1.1-0.1-1.9-0.3-2.5-0.4
				s-1-0.1-1-0.1s-0.1-5.8-0.1-11.3c0-2.8,0.2-5.6,0.3-7.7s0.2-3.5,0.2-3.5s1.3,1.6,3.2,4.1c0.9,1.2,2.2,2.6,3.4,4
				c1.3,1.5,2.6,3,4,4.6c1.3,1.6,2.8,3.1,4.1,4.5c1.3,1.4,2.6,2.7,3.7,3.8c1.1,1.1,1.9,2.1,2.6,2.7
				C84.3,437.8,84.7,438.1,84.7,438.1z"/>
			<path fill="#7dd8ff" d="M18.3,325.4c0,0-1.2-0.8-2.9-1.9c-1.8-1.1-4-2.8-6.3-4.4c-4.5-3.3-9.1-6.8-9.1-6.8s0.2-0.3,0.5-0.9
				c0.3-0.5,0.8-1.3,1.3-2.3c1.1-1.9,2.5-4.3,3.9-6.7c0.7-1.2,1.4-2.4,2.1-3.5c0.3-0.6,0.7-1.1,1-1.6s0.6-1,0.9-1.4
				c1.2-1.7,1.9-2.9,1.9-2.9s0.1,0.5,0.2,1.4c0.1,0.9,0.2,2.2,0.5,3.7c0.5,3.1,1.3,7.1,2,11.2c0.9,4,1.9,8.1,2.6,11.1
				c0.3,1.5,0.7,2.7,1,3.6C18.2,324.9,18.3,325.4,18.3,325.4z"/>
			<path fill="#7dd8ff" d="M17.5,194.5c0,0-1.7-4.7-3.3-9.6c-0.4-1.2-0.8-2.5-1.2-3.6c-0.3-1.2-0.6-2.2-0.9-3.2
				c-0.5-1.9-0.9-3.1-0.9-3.1s1-0.8,2.6-2s3.5-2.7,5.7-4.2c4.3-2.9,8.4-5.7,8.4-5.7s-0.8,1.9-1.9,4.8c-0.5,1.5-1.3,3.1-1.9,5
				c-0.6,1.8-1.3,3.8-1.9,5.8c-0.6,2-1.4,3.9-1.9,5.8c-0.5,1.9-1,3.6-1.4,5.1C18,192.5,17.5,194.5,17.5,194.5z"/>
			<path fill="#7dd8ff" d="M82.4,80.9c0,0,0.1-0.3,0.1-0.9c0.1-0.5,0.3-1.3,0.4-2.2c0.4-1.9,0.9-4.4,1.4-6.8c0.6-2.5,1.1-5.1,1.6-6.9
				c0.5-1.9,0.8-3.1,0.8-3.1s5.2-0.7,10.2-1.2c5.2-0.4,10.2-0.7,10.2-0.7s-1.6,1.3-4.1,3.2c-0.6,0.5-1.3,1-2,1.5
				c-0.7,0.6-1.4,1.2-2.1,1.8c-1.5,1.3-3,2.6-4.6,4c-0.8,0.7-1.6,1.4-2.3,2c-0.8,0.7-1.5,1.4-2.2,2c-1.4,1.3-2.7,2.6-3.8,3.7
				c-1.1,1.1-2.1,2-2.7,2.6c-0.3,0.3-0.6,0.6-0.7,0.7C82.5,80.8,82.4,80.9,82.4,80.9z"/>
			<path fill="#7dd8ff" d="M195.5,15.2c0,0,0.8-1,2-2.5c1.2-1.4,2.9-3.3,4.7-5.2s3.5-3.8,4.9-5.2c0.7-0.7,1.2-1.3,1.6-1.7
				c0.4-0.4,0.6-0.6,0.6-0.6s4.8,2.1,9.5,4.2c1.1,0.5,2.3,1.1,3.4,1.5c1.1,0.5,2.1,1.1,2.9,1.5c1.7,0.9,2.8,1.5,2.8,1.5
				s-2.1,0.3-5.1,0.7c-3.1,0.5-7.1,1.3-11.2,2c-1,0.2-2,0.4-3,0.6c-1,0.2-2,0.5-2.9,0.7c-1.9,0.4-3.7,0.8-5.2,1.2
				c-1.5,0.3-2.8,0.6-3.6,0.9C196,15.1,195.5,15.2,195.5,15.2z"/>
			<path fill="#7dd8ff" d="M401,465c0,0-0.3-0.1-1-0.2c-0.6-0.1-1.5-0.3-2.6-0.6c-2.2-0.5-5-1.2-7.8-1.9c-2.8-0.7-5.5-1.4-7.6-2.1
				c-2.1-0.6-3.4-1.1-3.4-1.1s-1.2,5.5-2.6,11.2c-1.5,5.5-3.3,11.1-3.3,11.1s1.8-0.9,4.6-2.3c2.8-1.3,6.3-3.5,9.8-5.5
				c3.6-2,7-4.3,9.6-5.9c1.3-0.8,2.4-1.5,3.1-2C400.6,465.3,401,465,401,465z"/>
			<path fill="#7dd8ff" d="M278.5,507.2c0,0-1.1-1-2.7-2.4s-3.7-3.5-5.8-5.5c-4.1-4.1-8-8.2-8-8.2s-0.9,1.1-2.4,2.6s-3.4,3.6-5.5,5.6
				c-2,2-4.1,4.1-5.7,5.6c-1.6,1.5-2.7,2.4-2.7,2.4s0.5,0,1.4,0.1s2.2,0.1,3.7,0.2c3.1,0.1,7.2,0.2,11.3,0.2
				c4.1-0.1,8.2-0.2,11.3-0.3c1.5-0.1,2.8-0.2,3.7-0.3C278,507.2,278.5,507.2,278.5,507.2z"/>
			<path fill="#7dd8ff" d="M151.3,482.4c0,0-2-5.2-3.8-10.2c-0.9-2.5-1.7-5.1-2.3-7s-1-3.2-1-3.2s-1.3,0.3-3.3,0.8s-4.6,1.1-7.2,1.5
				c-5.3,1-10.8,1.8-10.8,1.8s1.7,1.1,4.3,2.8c1.3,0.8,2.8,1.8,4.4,2.8c1.7,1,3.4,2,5.2,3s3.6,2,5.2,3c1.7,0.9,3.3,1.7,4.7,2.4
				C149.5,481.5,151.3,482.4,151.3,482.4z"/>
			<path fill="#7dd8ff" d="M53.8,397.1c0,0,0.8-5.5,1.8-10.8c0.2-1.3,0.5-2.6,0.7-3.9c0.3-1.2,0.5-2.4,0.8-3.4c0.5-2,0.8-3.3,0.8-3.3
				s-1.3-0.4-3.2-1c-1-0.3-2.1-0.6-3.3-1c-0.6-0.2-1.2-0.4-1.9-0.6c-0.6-0.2-1.3-0.4-1.9-0.7c-5-1.8-10.2-3.8-10.2-3.8
				s0.9,1.8,2.3,4.6c0.7,1.4,1.5,3,2.4,4.7c1,1.7,2,3.4,3,5.2c1,1.8,2,3.6,3,5.2s2,3.1,2.8,4.4C52.7,395.4,53.8,397.1,53.8,397.1z"
				/>
			<path fill="#7dd8ff" d="M12.2,274.4c0,0,0.8-1.1,2.1-2.7s3.1-3.7,4.9-5.7s3.6-4,4.9-5.5c0.7-0.7,1.2-1.3,1.6-1.8
				c0.4-0.4,0.6-0.7,0.6-0.7s-3.6-3.9-7.1-8c-1.8-2-3.6-4.2-4.8-5.7c-1.3-1.6-2.1-2.7-2.1-2.7s0,0.5-0.1,1.4c0,0.9-0.2,2.2-0.2,3.7
				c-0.1,3.1-0.2,7.2-0.3,11.3c0.1,4.1,0.2,8.2,0.3,11.3c0,0.8,0,1.5,0.1,2.1c0,0.6,0.1,1.2,0.1,1.6
				C12.2,273.8,12.2,274.4,12.2,274.4z"/>
			<path fill="#7dd8ff" d="M37.7,147.3c0,0,4.5-2.4,8.8-4.6c2.2-1.1,4.5-2.1,6.2-2.8s2.8-1.2,2.8-1.2s-0.1-1.2-0.3-3
				c-0.2-1.9-0.4-4.3-0.5-6.7c-0.3-4.9-0.5-10-0.5-10s-1.1,1.7-2.8,4.3c-1.7,2.6-3.9,6-5.9,9.6s-4.1,7.1-5.5,9.9
				C38.7,145.5,37.7,147.3,37.7,147.3z"/>
			<path fill="#7dd8ff" d="M123.6,50.2c0,0,5.1,0.2,9.9,0.5c0.6,0,1.2,0.1,1.8,0.1c0.6,0.1,1.2,0.1,1.8,0.2c1.1,0.1,2.2,0.2,3.1,0.3
				c1.8,0.2,3,0.3,3,0.3s0.5-1.1,1.2-2.8c0.4-0.8,0.8-1.8,1.3-2.9c0.5-1,1.1-2.1,1.6-3.2c2.2-4.4,4.6-8.8,4.6-8.8s-1.8,0.9-4.6,2.3
				c-1.4,0.7-3,1.5-4.7,2.4s-3.4,2-5.2,3s-3.6,2-5.2,3c-1.7,1-3.1,2-4.4,2.8C125.3,49.1,123.6,50.2,123.6,50.2z"/>
			<path fill="#7dd8ff" d="M246.6,9.4c0,0,0.3,0.2,0.7,0.4c0.5,0.3,1.1,0.7,1.9,1.2c1.6,1,3.6,2.4,5.7,3.8c2,1.4,4,2.8,5.5,3.8
				c0.7,0.5,1.4,1,1.8,1.3s0.7,0.5,0.7,0.5s3.9-2.8,8-5.6c1-0.7,2.1-1.4,3-2c1-0.6,1.9-1.2,2.7-1.6c1.6-1,2.7-1.6,2.7-1.6
				s-2-0.2-5.1-0.4c-3.1-0.1-7.2-0.2-11.3-0.3c-2-0.1-4.1,0-6,0.1c-1.9,0.1-3.7,0.1-5.2,0.1s-2.8,0.1-3.7,0.1
				C247.1,9.3,246.6,9.4,246.6,9.4z"/>
			<path fill="#7dd8ff" d="M23.5,269.4c0,0,0-1.6,0.1-4.6c0-1.5,0.1-3.4,0.2-5.7c0-1.1,0-2.3,0.1-3.6c0.1-1.3,0.2-2.7,0.3-4.1
				c0.8-11.7,2.8-29,8.7-50.2c0.8-2.6,1.5-5.4,2.4-8.1c0.9-2.7,1.9-5.5,2.9-8.4c0.9-2.9,2.1-5.8,3.3-8.7s2.3-6,3.7-9
				c5.3-12.2,12.1-24.8,20.5-37.6s18.6-25.6,30.6-37.8s25.8-24,41.5-34.4s33.2-19.4,52.1-26.6c2.3-1,4.8-1.7,7.2-2.5
				s4.8-1.7,7.3-2.4c2.5-0.7,5-1.4,7.5-2.1c1.2-0.3,2.5-0.7,3.8-1.1c1.3-0.3,2.5-0.6,3.8-0.9c2.5-0.6,5.1-1.2,7.7-1.7
				c2.6-0.6,5.2-0.9,7.8-1.4c1.3-0.2,2.6-0.5,3.9-0.7l2-0.3l2-0.2c2.7-0.3,5.3-0.7,8-1c2.7-0.4,5.4-0.5,8.1-0.7s5.4-0.4,8.1-0.6
				c2.7-0.1,5.5-0.1,8.2-0.2c1.4,0,2.7-0.1,4.1-0.1s2.8,0.1,4.1,0.1c2.8,0.1,5.5,0.2,8.3,0.2c2.8,0.1,5.5,0.4,8.3,0.6
				c5.6,0.3,11.1,1.2,16.7,1.9c11.1,1.8,22.3,4,33.4,7.4c5.6,1.5,11,3.5,16.5,5.4c2.7,1,5.4,2.1,8.1,3.2l4.1,1.6l4,1.8
				c21.4,9.5,41.8,22.3,60.2,37.8c2.3,2,4.5,4,6.8,5.9c2.2,2,4.4,4.2,6.6,6.2c1.1,1.1,2.2,2.1,3.3,3.2l3.1,3.3l3.1,3.3
				c1,1.1,2.1,2.2,3.1,3.4c2,2.3,4,4.6,6,6.9s3.8,4.8,5.7,7.2c0.9,1.2,1.9,2.4,2.8,3.6l2.6,3.8l2.7,3.8c0.9,1.2,1.8,2.5,2.6,3.8
				c1.6,2.6,3.3,5.2,4.9,7.8s3.1,5.3,4.6,8c0.8,1.3,1.5,2.7,2.3,4l2.1,4.1l2.1,4.1l1,2.1c0.3,0.7,0.6,1.4,1,2.1
				c1.3,2.8,2.5,5.6,3.8,8.5c1.2,2.8,2.3,5.8,3.4,8.6c0.6,1.4,1.1,2.9,1.7,4.3l1.5,4.4l1.5,4.4c0.5,1.5,1,2.9,1.4,4.4l2.5,9
				c0.5,1.5,0.7,3,1.1,4.5l1,4.5l1,4.5l0.8,4.6l0.8,4.6c0.3,1.5,0.6,3.1,0.7,4.6l1.1,9.3c0.1,0.8,0.2,1.5,0.3,2.3l0.2,2.3l0.3,4.7
				l0.3,4.7c0.1,1.6,0.1,3.1,0.2,4.7l0.2,9.3l-0.3,9.3c-0.1,1.6,0,3.1-0.2,4.7l-0.4,4.7l-0.4,4.6l-0.2,2.3c-0.1,0.8-0.2,1.5-0.3,2.3
				l-1.2,9.2c-0.2,1.5-0.5,3.1-0.8,4.6l-0.8,4.6l-0.8,4.6l-1.1,4.5l-1.1,4.5c-0.4,1.5-0.7,3-1.1,4.5l-2.6,8.9
				c-0.4,1.5-0.9,3-1.4,4.4l-1.5,4.4l-1.5,4.4c-0.5,1.5-1.1,2.9-1.7,4.3c-1.2,2.9-2.2,5.8-3.5,8.6c-1.3,2.8-2.6,5.6-3.8,8.4
				c-0.3,0.7-0.6,1.4-1,2.1l-1.1,2.1l-2.1,4.1l-2.1,4.1c-0.7,1.3-1.5,2.7-2.3,4c-1.6,2.6-3,5.3-4.7,7.9s-3.3,5.1-5,7.7
				c-0.8,1.3-1.7,2.5-2.6,3.8l-2.7,3.7l-2.7,3.7c-0.9,1.2-1.9,2.4-2.8,3.6c-1.9,2.4-3.7,4.8-5.7,7.1c-2,2.3-4,4.6-6,6.9
				c-1,1.2-2,2.2-3.1,3.3l-3.1,3.3l-3.1,3.3c-1.1,1.1-2.2,2.1-3.3,3.1c-2.2,2.1-4.3,4.2-6.6,6.2c-2.3,2-4.5,3.9-6.8,5.9
				c-18.4,15.3-38.7,27.9-60,37.2l-4,1.8l-4,1.6c-2.7,1-5.4,2.1-8.1,3.1c-5.5,1.8-10.9,3.8-16.4,5.2c-10.9,3.2-22.1,5.4-33.1,7.1
				c-5.5,0.7-11,1.5-16.6,1.8c-2.8,0.2-5.5,0.5-8.2,0.5c-2.7,0.1-5.5,0.1-8.2,0.2c-1.4,0-2.7,0.1-4.1,0.1s-2.7-0.1-4.1-0.1
				c-2.7-0.1-5.4-0.2-8.1-0.2c-2.7-0.2-5.4-0.4-8-0.6c-2.7-0.2-5.3-0.4-8-0.8c-2.6-0.3-5.3-0.7-7.9-1l-2-0.3l-1.9-0.4
				c-1.3-0.2-2.6-0.5-3.9-0.7c-2.6-0.5-5.2-0.9-7.7-1.5s-5.1-1.2-7.6-1.8c-1.3-0.3-2.5-0.6-3.8-0.9c-1.2-0.4-2.5-0.7-3.7-1.1
				c-2.5-0.7-4.9-1.4-7.4-2.1c-2.4-0.8-4.8-1.6-7.2-2.4s-4.8-1.6-7.1-2.5c-18.7-7.1-35.9-16.2-51.2-26.5
				c-15.4-10.3-28.9-22-40.6-34.2s-21.6-24.8-29.8-37.4s-14.8-25.1-19.9-37c-1.4-2.9-2.5-5.9-3.6-8.8s-2.3-5.7-3.2-8.6
				c-0.9-2.8-1.9-5.6-2.8-8.3c-0.8-2.7-1.5-5.4-2.3-8c-5.7-20.8-7.5-37.8-8.2-49.3c-0.1-1.4-0.2-2.8-0.3-4.1
				c-0.1-1.3-0.1-2.5-0.1-3.6c0-2.2-0.1-4.1-0.1-5.5c-0.1-3-0.1-4.5-0.1-4.5s0,1.5,0.1,4.5c0,1.5,0.1,3.3,0.2,5.5
				c0,1.1,0,2.3,0.1,3.6c0.1,1.3,0.2,2.6,0.3,4.1c0.8,11.5,2.7,28.4,8.6,49.2c0.7,2.6,1.5,5.2,2.3,8c0.9,2.7,1.9,5.4,2.8,8.2
				c0.9,2.8,2.1,5.6,3.2,8.5c1.2,2.9,2.3,5.9,3.7,8.8c5.2,11.9,11.8,24.3,20.1,36.8s18.2,25,29.9,37.1c11.7,12,25.2,23.5,40.6,33.7
				c15.4,10.1,32.5,19,51,26c2.3,1,4.7,1.6,7,2.5c2.4,0.8,4.7,1.6,7.1,2.4c2.4,0.7,4.9,1.4,7.3,2c1.2,0.3,2.4,0.7,3.7,1
				c1.2,0.3,2.5,0.6,3.7,0.9c2.5,0.6,5,1.1,7.5,1.7c2.5,0.6,5.1,0.9,7.6,1.4c1.3,0.2,2.6,0.4,3.8,0.7l1.9,0.3l1.9,0.2
				c2.6,0.3,5.2,0.6,7.8,1s5.2,0.5,7.9,0.7c2.6,0.2,5.3,0.4,8,0.6c2.7,0.1,5.3,0.1,8,0.2c1.3,0,2.7,0.1,4,0.1s2.7-0.1,4-0.1
				c2.7-0.1,5.4-0.2,8.1-0.2c2.7-0.1,5.4-0.4,8.1-0.6c5.5-0.3,10.9-1.2,16.4-1.9c10.9-1.8,21.9-3.9,32.7-7.2
				c5.5-1.4,10.8-3.4,16.1-5.2c2.7-1,5.3-2.1,7.9-3.1l4-1.6l3.9-1.8c21-9.3,40.9-21.9,58.9-37c2.2-1.9,4.4-3.9,6.7-5.8
				c2.2-2,4.3-4.1,6.4-6.1c1.1-1,2.1-2,3.2-3.1l3.1-3.2l3.1-3.2c1-1.1,2.1-2.1,3-3.3c1.9-2.3,3.9-4.5,5.8-6.8s3.7-4.7,5.6-7
				c0.9-1.2,1.9-2.4,2.8-3.5l2.6-3.7l2.6-3.7c0.9-1.2,1.7-2.4,2.5-3.7c1.6-2.5,3.2-5.1,4.8-7.6c1.6-2.6,3-5.2,4.5-7.8
				c0.7-1.3,1.5-2.6,2.2-3.9l2-4l2.1-4l1-2c0.3-0.7,0.6-1.4,0.9-2.1c1.2-2.8,2.5-5.5,3.7-8.3s2.2-5.6,3.4-8.4
				c0.5-1.4,1.1-2.8,1.6-4.2l1.4-4.3l1.4-4.3c0.5-1.4,1-2.9,1.4-4.3l2.5-8.8c0.4-1.5,0.7-3,1.1-4.4l1-4.4l1-4.4l0.8-4.5l0.8-4.5
				c0.2-1.5,0.6-3,0.7-4.5l1.1-9.1c0.1-0.8,0.2-1.5,0.3-2.3l0.2-2.3l0.3-4.6l0.3-4.6c0.1-1.5,0.1-3,0.1-4.6l0.2-9.1l-0.3-9.1
				c-0.1-1.5,0-3-0.2-4.6l0.6-5.4l-0.4-4.6l-0.2-2.3c-0.1-0.8-0.2-1.5-0.3-2.3l-1.2-9c-0.2-1.5-0.5-3-0.7-4.5l-0.8-4.5l-0.8-4.5
				l-1-4.4l-1-4.4c-0.4-1.5-0.6-3-1.1-4.4l-2.5-8.7c-0.4-1.5-0.9-2.9-1.4-4.3l-1.5-4.3l-1.5-4.3c-0.5-1.4-1.1-2.8-1.7-4.2
				c-1.1-2.8-2.2-5.6-3.4-8.4c-1.3-2.7-2.5-5.5-3.8-8.2c-0.3-0.7-0.6-1.4-1-2l-1-2l-2.1-4l-2.1-4c-0.7-1.3-1.5-2.6-2.2-3.9
				c-1.5-2.6-3-5.2-4.6-7.8c-1.6-2.5-3.3-5-4.9-7.5c-0.8-1.3-1.7-2.5-2.5-3.7l-2.6-3.6l-2.6-3.6c-0.9-1.2-1.8-2.3-2.8-3.5
				c-1.9-2.3-3.6-4.7-5.6-7c-2-2.2-3.9-4.5-5.9-6.7c-1-1.1-2-2.2-3-3.3l-3.1-3.2l-3.1-3.2c-1-1-2.1-2-3.2-3.1c-2.2-2-4.2-4.1-6.4-6
				c-2.2-1.9-4.5-3.8-6.7-5.7c-18-15-37.9-27.3-58.7-36.4l-3.9-1.7l-4-1.5c-2.6-1-5.3-2.1-7.9-3.1c-5.4-1.7-10.6-3.7-16-5.1
				c-10.7-3.2-21.6-5.2-32.4-6.9c-5.4-0.6-10.8-1.5-16.2-1.7c-2.7-0.2-5.4-0.4-8.1-0.5s-5.4-0.1-8-0.2c-1.3,0-2.7-0.1-4-0.1
				s-2.7,0.1-4,0.1c-2.7,0.1-5.3,0.2-7.9,0.2c-2.6,0.2-5.3,0.4-7.9,0.6s-5.2,0.4-7.8,0.8c-2.6,0.3-5.2,0.7-7.7,1l-1.9,0.3l-1.9,0.3
				c-1.3,0.2-2.5,0.5-3.8,0.7c-2.5,0.5-5,0.9-7.5,1.4c-2.5,0.6-4.9,1.2-7.4,1.7c-1.2,0.3-2.5,0.6-3.7,0.9s-2.4,0.7-3.6,1
				c-2.4,0.7-4.8,1.4-7.2,2.1c-2.4,0.7-4.7,1.6-7,2.4c-2.3,0.8-4.7,1.5-6.9,2.5c-18.3,7-35.1,15.9-50.1,26
				c-15.1,10.1-28.3,21.6-39.7,33.4c-11.5,11.9-21.1,24.3-29.2,36.6c-8,12.3-14.5,24.5-19.5,36.2c-1.4,2.9-2.4,5.8-3.5,8.6
				s-2.2,5.6-3.1,8.4c-0.9,2.8-1.8,5.5-2.7,8.1c-0.8,2.7-1.5,5.3-2.2,7.8c-5.6,20.4-7.4,37-8.1,48.2c-0.1,1.4-0.2,2.7-0.3,4
				c-0.1,1.2-0.1,2.4-0.1,3.5c0,2.2-0.1,4-0.1,5.4c-0.1,2.9-0.1,4.4-0.1,4.4L23.5,269.4L23.5,269.4z"/>
			<path fill="#7dd8ff" d="M99,93.9c0,0,0-1.5-0.1-3.7c-0.1-2.3,0-5.2,0.1-8.2s0.2-6,0.3-8.3c0.1-1.1,0.1-2.1,0.2-2.8
				c0.1-0.7,0.1-1,0.1-1s6.2,0.2,12.1,0.6c1.5,0.1,3,0.2,4.3,0.3c1.4,0.2,2.7,0.3,3.8,0.4c2.2,0.3,3.7,0.4,3.7,0.4s-1.6,1.3-4.1,3.2
				c-2.3,2-5.5,4.7-8.6,7.4c-3,2.8-6,5.7-8.3,7.8c-1.1,1.1-2,2-2.6,2.7C99.3,93.6,99,93.9,99,93.9z"/>
			<path fill="#7dd8ff" d="M211.4,26.9c0,0,0.7-1.3,1.8-3.2c0.6-1,1.2-2.1,1.9-3.3c0.7-1.2,1.5-2.4,2.3-3.7c3.1-5,6.6-10.1,6.6-10.1
				s0.3,0.2,0.9,0.5c0.6,0.3,1.4,0.8,2.3,1.5c1.9,1.3,4.5,2.9,6.9,4.6c2.5,1.7,4.9,3.4,6.7,4.7c1.8,1.4,3,2.3,3,2.3
				s-0.5,0.1-1.4,0.2s-2.2,0.3-3.7,0.6c-1.5,0.3-3.3,0.6-5.2,0.9c-1,0.2-1.9,0.3-2.9,0.5c-0.5,0.1-1,0.2-1.5,0.3l-1.5,0.3
				c-4,0.9-8.1,1.8-11.1,2.6C213.3,26.3,211.4,26.9,211.4,26.9z"/>
			<path fill="#7dd8ff" d="M342.2,25.3c0,0,0.3-0.2,0.8-0.4c0.5-0.3,1.3-0.6,2.2-1.1c1.9-0.9,4.4-2.1,6.9-3.3c2.6-1.2,5.2-2.4,7.1-3.2
				c2-0.8,3.3-1.3,3.3-1.3s3,4.9,5.8,9.7c1.4,2.5,2.7,5,3.6,6.8c0.9,1.9,1.6,3.1,1.6,3.1s-1.9-0.8-4.8-1.9c-0.7-0.3-1.5-0.6-2.3-0.9
				c-0.8-0.3-1.7-0.6-2.6-0.9c-1.8-0.6-3.8-1.3-5.8-1.9c-1-0.3-2-0.7-2.9-1c-1-0.3-1.9-0.6-2.9-0.8c-1.9-0.5-3.6-1-5.1-1.4
				s-2.7-0.8-3.6-1C342.7,25.4,342.2,25.3,342.2,25.3z"/>
			<path fill="#7dd8ff" d="M456.1,89.7c0,0,1.4,0,3.5,0.2s4.8,0.4,7.6,0.7c2.8,0.3,5.6,0.6,7.8,0.8c1.1,0.1,1.9,0.3,2.5,0.4
				s1,0.1,1,0.1s0.1,5.8,0.1,11.3c0,2.8-0.2,5.6-0.3,7.7c-0.1,2.1-0.2,3.5-0.2,3.5s-1.3-1.6-3.2-4.1c-0.9-1.2-2.2-2.6-3.4-4
				c-1.3-1.5-2.6-3-4-4.6c-1.3-1.6-2.8-3.1-4.1-4.5c-1.3-1.4-2.6-2.7-3.7-3.8c-1.1-1.1-1.9-2.1-2.6-2.7
				C456.5,90,456.1,89.7,456.1,89.7z"/>
			<path fill="#7dd8ff" d="M522.5,202.4c0,0,1.2,0.8,2.9,1.9c1.8,1.1,4,2.8,6.3,4.4c4.5,3.3,9.1,6.8,9.1,6.8s-0.2,0.3-0.5,0.9
				c-0.3,0.5-0.8,1.3-1.3,2.3c-1.1,1.9-2.5,4.3-3.9,6.7c-0.7,1.2-1.4,2.4-2.1,3.5c-0.3,0.6-0.7,1.1-1,1.6s-0.6,1-0.9,1.4
				c-1.2,1.7-1.9,2.9-1.9,2.9s-0.1-0.5-0.2-1.4c-0.1-0.9-0.2-2.2-0.5-3.7c-0.5-3.1-1.3-7.1-2-11.2c-0.9-4-1.9-8.1-2.6-11.1
				c-0.3-1.5-0.7-2.7-1-3.6C522.7,202.9,522.5,202.4,522.5,202.4z"/>
			<path fill="#7dd8ff" d="M523.4,333.3c0,0,1.7,4.7,3.3,9.6c0.4,1.2,0.8,2.5,1.2,3.6c0.3,1.2,0.6,2.2,0.9,3.2c0.5,1.9,0.8,3.1,0.8,3.1
				s-1,0.8-2.6,2s-3.5,2.7-5.7,4.2c-4.3,2.9-8.4,5.7-8.4,5.7s0.8-1.9,1.9-4.8c0.5-1.5,1.3-3.1,1.9-5c0.6-1.8,1.3-3.8,1.9-5.8
				c0.6-2,1.4-3.9,1.9-5.8s1-3.6,1.4-5.1C522.8,335.3,523.4,333.3,523.4,333.3z"/>
			<path fill="#7dd8ff" d="M458.4,446.8c0,0-0.1,0.3-0.1,0.9c-0.1,0.5-0.3,1.3-0.4,2.2c-0.4,1.9-0.9,4.4-1.4,6.8
				c-0.6,2.5-1.1,5.1-1.6,6.9c-0.5,1.9-0.8,3.1-0.8,3.1s-5.2,0.7-10.2,1.2c-5.2,0.4-10.2,0.7-10.2,0.7s1.6-1.3,4.1-3.2
				c0.6-0.5,1.3-1,2-1.5c0.7-0.6,1.4-1.2,2.1-1.8c1.5-1.3,3-2.6,4.6-4c0.8-0.7,1.6-1.4,2.3-2c0.8-0.7,1.5-1.4,2.2-2
				c1.4-1.3,2.7-2.6,3.8-3.7c1.1-1.1,2.1-2,2.7-2.6c0.3-0.3,0.6-0.6,0.7-0.7C458.3,446.9,458.4,446.8,458.4,446.8z"/>
			<path fill="#7dd8ff" d="M345.3,512.6c0,0-0.8,1-2,2.5c-1.2,1.4-2.9,3.3-4.7,5.2c-1.8,1.9-3.5,3.8-4.9,5.2c-0.7,0.7-1.2,1.3-1.6,1.7
				s-0.6,0.6-0.6,0.6s-4.8-2.1-9.5-4.2c-1.1-0.5-2.3-1.1-3.4-1.5c-1.1-0.5-2.1-1.1-2.9-1.5c-1.7-0.9-2.8-1.5-2.8-1.5
				s2.1-0.3,5.1-0.7c3.1-0.5,7.1-1.3,11.2-2c1-0.2,2-0.4,3-0.6c1-0.2,2-0.5,2.9-0.7c1.9-0.4,3.7-0.8,5.2-1.2
				c1.5-0.3,2.8-0.6,3.6-0.9C344.8,512.7,345.3,512.6,345.3,512.6z"/>
			<path fill="#7dd8ff" d="M139.8,62.8c0,0,0.3,0.1,1,0.2c0.6,0.1,1.5,0.3,2.6,0.6c2.2,0.5,5,1.2,7.8,1.9c2.8,0.7,5.5,1.4,7.6,2.1
				c2.1,0.6,3.4,1.1,3.4,1.1s1.2-5.5,2.6-11.2c1.5-5.5,3.3-11.1,3.3-11.1s-1.8,0.9-4.6,2.3c-2.8,1.3-6.3,3.5-9.8,5.5
				c-3.6,2-7,4.3-9.6,5.9c-1.3,0.8-2.4,1.5-3.1,2C140.2,62.5,139.8,62.8,139.8,62.8z"/>
			<path fill="#7dd8ff" d="M262.3,20.6c0,0,1.1,1,2.7,2.4s3.7,3.5,5.8,5.5c4.1,4.1,8,8.2,8,8.2s0.9-1.1,2.4-2.6s3.4-3.6,5.5-5.6
				c2-2,4.1-4.1,5.7-5.6s2.7-2.4,2.7-2.4s-0.5,0-1.4-0.1s-2.2-0.1-3.7-0.2c-3.1-0.1-7.2-0.2-11.3-0.2c-4.1,0.1-8.2,0.2-11.3,0.3
				c-1.5,0.1-2.8,0.2-3.7,0.3C262.8,20.5,262.3,20.6,262.3,20.6z"/>
			<path fill="#7dd8ff" d="M389.5,45.4c0,0,2,5.2,3.8,10.2c0.9,2.5,1.7,5.1,2.3,7c0.6,1.9,1,3.2,1,3.2s1.3-0.3,3.3-0.8s4.6-1.1,7.2-1.5
				c5.3-1,10.8-1.8,10.8-1.8s-1.7-1.1-4.3-2.8c-1.3-0.8-2.8-1.8-4.4-2.8c-1.7-1-3.4-2-5.2-3c-1.8-1-3.6-2-5.2-3
				c-1.7-0.9-3.3-1.7-4.7-2.4C391.3,46.3,389.5,45.4,389.5,45.4z"/>
			<path fill="#7dd8ff" d="M487.1,130.7c0,0-0.8,5.5-1.8,10.8c-0.2,1.3-0.5,2.6-0.7,3.9c-0.3,1.2-0.5,2.4-0.8,3.4
				c-0.5,2-0.8,3.3-0.8,3.3s1.3,0.4,3.2,1c1,0.3,2.1,0.6,3.3,1c0.6,0.2,1.2,0.4,1.9,0.6c0.6,0.2,1.3,0.4,1.9,0.7
				c5,1.8,10.2,3.8,10.2,3.8s-0.9-1.8-2.3-4.6c-0.7-1.4-1.5-3-2.4-4.7c-1-1.7-2-3.4-3-5.2s-2-3.6-3-5.2c-1-1.6-2-3.1-2.8-4.4
				C488.2,132.4,487.1,130.7,487.1,130.7z"/>
			<path fill="#7dd8ff" d="M528.6,253.4c0,0-0.8,1.1-2.1,2.7c-1.3,1.6-3.1,3.7-4.9,5.7c-1.8,2-3.6,4-4.9,5.5c-0.7,0.7-1.2,1.3-1.6,1.8
				c-0.4,0.4-0.6,0.7-0.6,0.7s3.6,3.9,7.1,8c1.8,2,3.6,4.2,4.8,5.7c1.3,1.6,2.1,2.7,2.1,2.7s0-0.5,0.1-1.4c0-0.9,0.2-2.2,0.2-3.7
				c0.1-3.1,0.2-7.2,0.3-11.3c-0.1-4.1-0.2-8.2-0.3-11.3c0-0.8,0-1.5-0.1-2.1c0-0.6-0.1-1.2-0.1-1.6
				C528.6,253.9,528.6,253.4,528.6,253.4z"/>
			<path fill="#7dd8ff" d="M503.1,380.5c0,0-4.5,2.4-8.8,4.6c-2.2,1.1-4.5,2.1-6.2,2.8c-1.7,0.7-2.8,1.2-2.8,1.2s0.1,1.2,0.3,3
				c0.2,1.9,0.4,4.3,0.5,6.7c0.3,4.9,0.5,10,0.5,10s1.1-1.7,2.8-4.3c1.7-2.6,3.9-6,5.9-9.6s4.1-7.1,5.5-9.9
				C502.1,382.3,503.1,380.5,503.1,380.5z"/>
			<path fill="#7dd8ff" d="M417.2,477.5c0,0-5.1-0.2-9.9-0.5c-0.6,0-1.2-0.1-1.8-0.1c-0.6-0.1-1.2-0.1-1.8-0.2
				c-1.1-0.1-2.2-0.2-3.1-0.3c-1.8-0.2-3-0.3-3-0.3s-0.5,1.1-1.2,2.8c-0.4,0.8-0.8,1.8-1.3,2.9c-0.5,1-1.1,2.1-1.6,3.2
				c-2.2,4.4-4.6,8.8-4.6,8.8s1.8-0.9,4.6-2.3c1.4-0.7,3-1.5,4.7-2.4s3.4-2,5.2-3c1.8-1,3.6-2,5.2-3c1.7-1,3.1-2,4.4-2.8
				C415.5,478.6,417.2,477.5,417.2,477.5z"/>
			<path fill="#7dd8ff" d="M294.2,518.4c0,0-0.3-0.2-0.7-0.4c-0.5-0.3-1.1-0.7-1.9-1.2c-1.6-1-3.6-2.4-5.7-3.8c-2-1.4-4-2.8-5.5-3.8
				c-0.7-0.5-1.4-1-1.8-1.3s-0.7-0.5-0.7-0.5s-3.9,2.8-8,5.6c-1,0.7-2.1,1.4-3,2c-1,0.6-1.9,1.2-2.7,1.6c-1.6,1-2.7,1.6-2.7,1.6
				s2,0.2,5.1,0.4c3.1,0.1,7.2,0.2,11.3,0.3c2,0.1,4.1,0,6-0.1c1.9,0,3.7-0.1,5.2-0.1s2.8-0.1,3.7-0.1
				C293.7,518.5,294.2,518.4,294.2,518.4z"/>
		</g>
	</g>
</g>
</svg>
