<?xml version="1.0" encoding="utf-8"?>
<!-- Generator: Adobe Illustrator 19.2.1, SVG Export Plug-In . SVG Version: 6.00 Build 0)  -->
<svg version="1.1" id="圖層_1" xmlns="http://www.w3.org/2000/svg" xmlns:xlink="http://www.w3.org/1999/xlink" x="0px" y="0px"
	 viewBox="0 0 23.2 9.3" style="enable-background:new 0 0 23.2 9.3;" xml:space="preserve">
<style type="text/css">
	.st0{fill:#040000;}
</style>
<g>
	<path class="st0" d="M0,0h5.3c0.3,0,0.6,0.2,0.6,0.6c0,0.4-0.3,0.6-0.6,0.6H1.2V3h3c0.3,0,0.6,0.2,0.6,0.6c0,0.4-0.3,0.6-0.6,0.6
		h-3v4.5c0,0.4-0.2,0.6-0.6,0.6C0.2,9.3,0,9.1,0,8.7V0z"/>
	<path class="st0" d="M14,8.1c0.3,0,0.6,0.2,0.6,0.6S14.3,9.3,14,9.3H8.6V0H14c0.3,0,0.6,0.2,0.6,0.6c0,0.4-0.3,0.6-0.6,0.6H9.8v2.9
		h1.8c0.3,0,0.6,0.2,0.6,0.6s-0.3,0.6-0.6,0.6H9.8v2.9H14z"/>
	<path class="st0" d="M17.3,0h3.4c1.8,0,2.6,1.1,2.6,2.8c0,0.7-0.2,1.3-0.8,1.9c0.7,0.6,0.8,1.3,0.8,2.2c0,1.6-1,2.5-2.6,2.5h-3.4V0
		z M18.5,4.1h2.2c0.9,0,1.4-0.4,1.4-1.3c0-1-0.3-1.6-1.4-1.6h-2.2V4.1z M18.5,8.1h2.2c0.9,0,1.4-0.4,1.4-1.3c0-1-0.3-1.6-1.4-1.6
		h-2.2V8.1z"/>
</g>
</svg>
