<?xml version="1.0" encoding="utf-8"?>
<!-- Generator: Adobe Illustrator 19.2.1, SVG Export Plug-In . SVG Version: 6.00 Build 0)  -->
<svg version="1.1" id="圖層_1" xmlns="http://www.w3.org/2000/svg" xmlns:xlink="http://www.w3.org/1999/xlink" x="0px" y="0px"
	 viewBox="0 0 23.2 9.3" style="enable-background:new 0 0 23.2 9.3;" xml:space="preserve">
<style type="text/css">
	.st0{fill:#040000;}
</style>
<g>
	<path class="st0" d="M5.6,3.4c0.2,0.5,0.3,0.8,0.3,1.3c0,0.6-0.2,0.9-0.4,1.4L4.4,8.3c-0.3,0.6-0.8,1-1.5,1c-0.7,0-1.2-0.4-1.5-1
		L0.4,6.1C0.2,5.6,0,5.3,0,4.7c0-0.5,0.1-0.9,0.3-1.3L1.5,1C1.8,0.4,2.3,0,3,0c0.7,0,1.2,0.4,1.5,1L5.6,3.4z M3.4,1.6
		C3.3,1.4,3.2,1.2,3,1.2c-0.3,0-0.3,0.2-0.4,0.4L1.5,3.7c-0.2,0.3-0.3,0.6-0.3,1c0,0.3,0.1,0.5,0.2,0.8l1.2,2.3
		C2.6,7.9,2.7,8.1,3,8.1c0.2,0,0.3-0.2,0.4-0.4l1.2-2.3C4.7,5.2,4.7,5,4.7,4.7c0-0.4-0.1-0.6-0.3-1L3.4,1.6z"/>
	<path class="st0" d="M11.9,9.3c-0.9,0-1.4-0.4-1.8-1.1L9,6C8.8,5.6,8.6,5.2,8.6,4.7c0-0.5,0.1-0.9,0.3-1.3l1.1-2.2
		C10.5,0.3,11,0,11.9,0h2c0.3,0,0.6,0.1,0.6,0.6c0,0.4-0.3,0.6-0.6,0.6h-2c-0.5,0-0.6,0-0.8,0.5l-1,2.1C9.9,4.1,9.8,4.3,9.8,4.7
		c0,0.3,0.1,0.5,0.3,0.8l1,2.1c0.2,0.5,0.4,0.5,0.9,0.5h2c0.3,0,0.6,0.1,0.6,0.6c0,0.4-0.3,0.6-0.6,0.6H11.9z"/>
	<path class="st0" d="M18.5,1.2v0.4c0,0.4-0.2,0.6-0.6,0.6c-0.4,0-0.6-0.2-0.6-0.6V0h5.9v1.6c0,0.4-0.2,0.6-0.6,0.6S22,2,22,1.6V1.2
		h-1.2v7.5c0,0.4-0.2,0.6-0.6,0.6c-0.4,0-0.6-0.2-0.6-0.6V1.2H18.5z"/>
</g>
</svg>
