<?xml version="1.0" encoding="utf-8"?>
<!-- Generator: Adobe Illustrator 19.2.1, SVG Export Plug-In . SVG Version: 6.00 Build 0)  -->
<svg version="1.1" id="圖層_1" xmlns="http://www.w3.org/2000/svg" xmlns:xlink="http://www.w3.org/1999/xlink" x="0px" y="0px"
	 viewBox="0 0 23.2 9.3" style="enable-background:new 0 0 23.2 9.3;" xml:space="preserve">
<style type="text/css">
	.st0{fill:#040000;}
</style>
<g>
	<path class="st0" d="M2.4,0.6C2.5,0.3,2.6,0,3,0c0.4,0,0.5,0.3,0.6,0.6l2.3,8.1C6,9,5.7,9.3,5.3,9.3C5,9.3,4.8,9,4.7,8.7L4.2,7.3
		H1.7L1.2,8.7C1.2,9,1,9.3,0.6,9.3C0.3,9.3-0.1,9,0,8.7L2.4,0.6z M3,2.8L3,2.8L2,6.1h1.9L3,2.8z"/>
	<path class="st0" d="M9.9,8.7c0,0.4-0.2,0.6-0.6,0.6c-0.4,0-0.6-0.2-0.6-0.6V0h4c0.6,0,0.9,0.1,1.4,0.5c0.5,0.5,0.6,0.9,0.6,1.6
		v1.6c0,0.6,0,1-0.5,1.5c-0.5,0.5-1,0.6-1.6,0.6H9.9V8.7z M9.9,4.6h2.7c0.7,0,0.9-0.2,0.9-0.9V2.1c0-0.7-0.2-0.9-0.9-0.9H9.9V4.6z"
		/>
	<path class="st0" d="M18.5,8.7c0,0.4-0.2,0.6-0.6,0.6c-0.4,0-0.6-0.2-0.6-0.6V0h4c0.9,0,1.9,0.7,1.9,1.7v0.8c0,1.1-0.9,1.7-1.9,1.7
		h-1.1l2.7,3.9c0.1,0.2,0.3,0.4,0.3,0.6c0,0.3-0.3,0.6-0.6,0.6c-0.2,0-0.4-0.1-0.5-0.3l-3.3-4.7h-0.3V8.7z M18.5,3.1h2.7
		c0.3,0,0.9,0,0.9-0.5V1.7c0-0.5-0.5-0.5-0.9-0.5h-2.7V3.1z"/>
</g>
</svg>
