<?xml version="1.0" encoding="utf-8"?>
<!-- Generator: Adobe Illustrator 19.2.1, SVG Export Plug-In . SVG Version: 6.00 Build 0)  -->
<svg version="1.1" id="圖層_1" xmlns="http://www.w3.org/2000/svg" xmlns:xlink="http://www.w3.org/1999/xlink" x="0px" y="0px"
	 viewBox="0 0 23.2 9.3" style="enable-background:new 0 0 23.2 9.3;" xml:space="preserve">
<style type="text/css">
	.st0{fill:#040000;}
</style>
<g>
	<path class="st0" d="M2.4,0.6C2.5,0.3,2.6,0,3,0c0.4,0,0.5,0.3,0.6,0.6l2.3,8.1C6,9,5.7,9.3,5.3,9.3C5,9.3,4.8,9,4.7,8.7L4.2,7.3
		H1.7L1.2,8.7C1.2,9,1,9.3,0.6,9.3C0.3,9.3-0.1,9,0,8.7L2.4,0.6z M3,2.8L3,2.8L2,6.1h1.9L3,2.8z"/>
	<path class="st0" d="M10.6,9.3c-0.6,0-1.1-0.1-1.5-0.6C8.7,8.3,8.7,7.8,8.7,7.3V0.6C8.7,0.2,8.8,0,9.3,0c0.4,0,0.6,0.2,0.6,0.6v6.7
		c0,0.7,0.2,0.8,0.7,0.8h2c0.5,0,0.7-0.2,0.7-0.8V0.6C13.4,0.2,13.5,0,14,0c0.4,0,0.6,0.2,0.6,0.6v6.7c0,0.6-0.1,1-0.5,1.4
		c-0.4,0.5-0.9,0.6-1.5,0.6H10.6z"/>
	<path class="st0" d="M20.9,6.3c-0.3,0-0.6-0.2-0.6-0.6s0.3-0.6,0.6-0.6h2.4v2.4c0,1.2-0.8,1.9-1.9,1.9h-2.1c-0.6,0-1-0.1-1.4-0.5
		c-0.5-0.4-0.6-0.9-0.6-1.5v-3c0-0.8,0.2-1.2,0.6-1.8l1.4-1.8C19.8,0.2,20.2,0,21,0h1.6c0.3,0,0.6,0.2,0.6,0.6
		c0,0.4-0.3,0.6-0.6,0.6h-1.4c-0.7,0-0.6,0-1,0.5l-1.3,1.7c-0.4,0.5-0.4,1-0.4,1.6v2.4c0,0.7,0.1,0.9,0.8,0.9h1.9
		C21.7,8.1,22,8,22,7.5V6.3H20.9z"/>
</g>
</svg>
