<?xml version="1.0" encoding="utf-8"?>
<!-- Generator: Adobe Illustrator 19.2.1, SVG Export Plug-In . SVG Version: 6.00 Build 0)  -->
<svg version="1.1" id="圖層_1" xmlns="http://www.w3.org/2000/svg" xmlns:xlink="http://www.w3.org/1999/xlink" x="0px" y="0px"
	 viewBox="0 0 23.2 9.3" style="enable-background:new 0 0 23.2 9.3;" xml:space="preserve">
<style type="text/css">
	.st0{fill:#040000;}
</style>
<g>
	<path class="st0" d="M1.2,1.2H0.7C0.3,1.2,0,1.1,0,0.6C0,0.2,0.3,0,0.7,0h2c0.9,0,1.4,0.4,1.8,1.2l1.1,2.1c0.2,0.5,0.4,0.8,0.4,1.4
		c0,0.5-0.1,0.9-0.3,1.3L4.5,8.2c-0.4,0.9-1,1.1-1.9,1.1h-2C0.3,9.3,0,9.2,0,8.7s0.3-0.6,0.6-0.6h0.6V1.2z M2.4,8.1h0.2
		c0.5,0,0.6-0.1,0.8-0.5l1.1-2.1C4.6,5.2,4.7,5,4.7,4.7c0-0.4-0.1-0.6-0.3-1l-1-2C3.2,1.2,3.1,1.2,2.5,1.2H2.4V8.1z"/>
	<path class="st0" d="M14,8.1c0.3,0,0.6,0.2,0.6,0.6S14.3,9.3,14,9.3H8.6V0H14c0.3,0,0.6,0.2,0.6,0.6c0,0.4-0.3,0.6-0.6,0.6H9.8v2.9
		h1.8c0.3,0,0.6,0.2,0.6,0.6s-0.3,0.6-0.6,0.6H9.8v2.9H14z"/>
	<path class="st0" d="M20.5,9.3c-0.9,0-1.4-0.4-1.8-1.1L17.6,6c-0.2-0.4-0.3-0.8-0.3-1.3c0-0.5,0.1-0.9,0.3-1.3l1.1-2.2
		C19.1,0.3,19.6,0,20.6,0h2c0.3,0,0.6,0.1,0.6,0.6c0,0.4-0.3,0.6-0.6,0.6h-2c-0.5,0-0.6,0-0.8,0.5l-1,2.1c-0.2,0.3-0.3,0.5-0.3,0.9
		c0,0.3,0.1,0.5,0.3,0.8l1,2.1c0.2,0.5,0.4,0.5,0.9,0.5h2c0.3,0,0.6,0.1,0.6,0.6c0,0.4-0.3,0.6-0.6,0.6H20.5z"/>
</g>
</svg>
