<?xml version="1.0" encoding="utf-8"?>
<!-- Generator: Adobe Illustrator 19.2.1, SVG Export Plug-In . SVG Version: 6.00 Build 0)  -->
<svg version="1.1" id="圖層_1" xmlns="http://www.w3.org/2000/svg" xmlns:xlink="http://www.w3.org/1999/xlink" x="0px" y="0px"
	 viewBox="0 0 22.6 9.3" style="enable-background:new 0 0 22.6 9.3;" xml:space="preserve">
<style type="text/css">
	.st0{fill:#040000;}
</style>
<g>
	<path class="st0" d="M4.7,7.3c0,0.5,0,0.7-0.2,1.2c-0.4,0.7-1,0.9-1.8,0.9H2.1c-0.7,0-1.2-0.1-1.7-0.7C0.1,8.2,0,7.9,0,7.4V5.7
		c0-0.4,0.2-0.6,0.6-0.6s0.6,0.2,0.6,0.6v1.6c0,0.7,0.1,0.9,0.9,0.9h0.7c0.5,0,0.8-0.1,0.8-0.6V0.6C3.5,0.2,3.7,0,4.1,0
		s0.6,0.2,0.6,0.6V7.3z"/>
	<path class="st0" d="M10,9.3c-0.6,0-1.1-0.1-1.5-0.6C8.1,8.3,8,7.8,8,7.3V0.6C8,0.2,8.2,0,8.6,0c0.4,0,0.6,0.2,0.6,0.6v6.7
		C9.2,8,9.4,8.1,10,8.1h2c0.5,0,0.7-0.2,0.7-0.8V0.6c0-0.4,0.2-0.6,0.6-0.6C13.8,0,14,0.2,14,0.6v6.7c0,0.6-0.1,1-0.5,1.4
		c-0.4,0.5-0.9,0.6-1.5,0.6H10z"/>
	<path class="st0" d="M21.4,0.6C21.4,0.2,21.6,0,22,0s0.6,0.2,0.6,0.6v8.7H21l-3.1-7.2v0h0v6.6c0,0.4-0.2,0.6-0.6,0.6
		c-0.4,0-0.6-0.2-0.6-0.6V0h1.6l3.1,7.3h0h0L21.4,0.6z"/>
</g>
</svg>
