<?xml version="1.0" encoding="utf-8"?>
<!-- Generator: Adobe Illustrator 19.2.1, SVG Export Plug-In . SVG Version: 6.00 Build 0)  -->
<svg version="1.1" id="圖層_1" xmlns="http://www.w3.org/2000/svg" xmlns:xlink="http://www.w3.org/1999/xlink" x="0px" y="0px"
	 viewBox="0 0 23.2 9.3" style="enable-background:new 0 0 23.2 9.3;" xml:space="preserve">
<style type="text/css">
	.st0{fill:#040000;}
</style>
<g>
	<path class="st0" d="M4.4,0h1.5v8.7c0,0.4-0.2,0.6-0.6,0.6c-0.4,0-0.6-0.2-0.6-0.6V1.7h0L3.6,3.3v0.2c0,0.4-0.1,0.7-0.6,0.7
		c-0.4,0-0.6-0.3-0.6-0.7V3.3L1.2,1.7h0v7.1c0,0.4-0.2,0.6-0.6,0.6C0.2,9.3,0,9.1,0,8.7V0h1.5L3,2.1L4.4,0z"/>
	<path class="st0" d="M11,0.6C11.1,0.3,11.2,0,11.6,0c0.4,0,0.5,0.3,0.6,0.6l2.3,8.1C14.6,9,14.3,9.3,14,9.3c-0.4,0-0.6-0.3-0.6-0.6
		l-0.4-1.4h-2.6L9.9,8.7C9.8,9,9.6,9.3,9.2,9.3C8.9,9.3,8.6,9,8.6,8.7L11,0.6z M11.6,2.8L11.6,2.8l-1,3.3h1.9L11.6,2.8z"/>
	<path class="st0" d="M18.5,8.7c0,0.4-0.2,0.6-0.6,0.6c-0.4,0-0.6-0.2-0.6-0.6V0h4c0.9,0,1.9,0.7,1.9,1.7v0.8c0,1.1-0.9,1.7-1.9,1.7
		h-1.1l2.7,3.9c0.1,0.2,0.3,0.4,0.3,0.6c0,0.3-0.3,0.6-0.6,0.6c-0.2,0-0.4-0.1-0.5-0.3l-3.3-4.7h-0.3V8.7z M18.5,3.1h2.7
		c0.3,0,0.9,0,0.9-0.5V1.7c0-0.5-0.5-0.5-0.9-0.5h-2.7V3.1z"/>
</g>
</svg>
